<?xml version="1.0" standalone="no"?>
<!DOCTYPE svg PUBLIC "-//W3C//DTD SVG 20010904//EN"
 "http://www.w3.org/TR/2001/REC-SVG-20010904/DTD/svg10.dtd">
<svg version="1.0" xmlns="http://www.w3.org/2000/svg"
 width="200.000000pt" height="200.000000pt" viewBox="0 0 200.000000 200.000000"
 preserveAspectRatio="xMidYMid meet">
<metadata>
Created by potrace 1.16, written by Peter Selinger 2001-2019
</metadata>
<g transform="translate(0.000000,200.000000) scale(0.100000,-0.100000)"
fill="#000000" stroke="none">
<path d="M0 1000 l0 -1000 1000 0 1000 0 0 1000 0 1000 -1000 0 -1000 0 0
-1000z m679 310 c51 -88 96 -160 100 -160 4 0 47 70 97 155 49 85 92 155 96
155 5 0 92 -145 164 -275 l27 -50 -133 -230 c-73 -127 -157 -274 -188 -328
-31 -53 -59 -97 -63 -97 -6 0 -49 74 -352 600 -71 124 -152 262 -178 308 l-49
82 194 0 193 0 92 -160z m1097 138 c-7 -13 -136 -237 -286 -498 -150 -261
-274 -476 -275 -478 -1 -1 -46 73 -99 164 l-96 167 186 321 c103 177 191 327
197 334 7 9 59 12 198 12 l189 0 -14 -22z"/>
</g>
</svg>
